<svg t="1758017897636" class="icon" viewBox="0 0 1024 1024" version="1.1" xmlns="http://www.w3.org/2000/svg" p-id="16721" width="200" height="200"><path d="M478.4 727l7.7-167.8h-41.9l7.7 167.8zM465 746.4c-6.9 0-12.6 2.2-17.1 6.6-4.9 4.2-7.4 9.7-7.4 16.7 0 6.6 2.5 12.1 7.4 16.7 4.7 4.6 10.4 6.9 17.1 6.9 6.7 0 12.6-2.2 17.8-6.6 4.7-4.6 7-10.3 7-17.1 0-7-2.4-12.6-7-16.7-4.5-4.3-10.5-6.5-17.8-6.5z" fill="#1296db" p-id="16722"></path><path d="M902 528.5c-37.8-37-93.8-38-130.2-2.5l-80.3 78.4c-6.2 6-13.1 9.4-18.4 9.1-3.3-0.1-6-1.5-7.3-2.7-1.5-3.3-3.3-14.3 1.3-51.1l40.3-323.4c2.5-20.2-3.4-41-16.1-57.3-12.8-16.4-31.1-26.7-51.4-29.1-42.2-5.1-80.8 25.5-85.9 66.8l-13.9 79.5-7-152.7c0-42-34.7-76.1-77.4-76.1s-77.4 34.1-77.4 76l-0.3 101.7-6-32.4c-7.8-42.1-48.1-70.3-89.8-62.9-20.2 3.6-37.8 15-49.7 32.1-11.8 17-16.4 38.2-12.9 57.1l17 121c-16.8-35.9-58.3-54.3-95.9-41.2-19.4 6.7-35.1 20.9-44 39.7-8.9 18.7-10 40.3-3.4 58.3L205 773.2c0.7 2.2 1.3 4.4 2.2 7 0.1 0.4 0.2 0.7 0.4 1.1 35.2 105.3 134.9 176 248.2 176 72.4 0 146.8-24.5 204.4-67.3 61-36.9 239.1-223.7 246.1-231.1 16.9-16.5 26.1-38.2 26.1-61.3-0.1-25.1-11.1-50.3-30.4-69.1zM872.8 626C822 679.4 680.2 823.8 635.2 850.3c-0.7 0.4-1.5 0.9-2.2 1.4-49.8 37.3-114.4 58.7-177.3 58.7-92.7 0-174.2-57.4-203.4-142.9-0.1-0.8-0.2-1.2-0.8-2.3L137.7 401.8c-2.7-7.3-2.2-15.8 1.3-23.2 3.5-7.5 9.6-13 17.1-15.6 15.5-5.4 33.4 3.6 39.3 19.9l63.7 166.5c8.1 21.4 25.6 19.3 29.1 18.7 9.6-1.8 20.8-10.4 20.6-28.8 0-1-0.1-2-0.2-3.1l-42.9-304.9c-1.4-7.7 0.4-16.1 5.2-22.9 4.7-6.8 11.6-11.3 19.4-12.7 16.2-3 32.5 8.7 35.6 25.3l47.8 258.6c2 14.5 13.8 24.2 27.7 22.9 13.7-1.5 23.6-13.9 22.6-26.6l1.1-332.7c0-16.1 13.7-29.3 30.5-29.3s30.5 13.1 30.5 30.4L501.2 475c1.2 18.2 13.2 26.3 23 27.7 12.9 1.8 25.1-6.2 30.2-20.1 0.5-1.3 0.8-2.7 1.1-4l44.6-255.2c2.1-16.7 17.5-29.3 34.1-27.2 7.8 0.9 14.9 5 20 11.5s7.5 14.8 6.5 22.7l-40.3 323.4c-5.2 42.1-5.5 69.7 8.7 86.1 10.8 12.4 25.6 19.7 41.8 20.3 18.6 0.9 37.5-7.2 53.1-22.4l80.3-78.4c18.3-17.9 45-16.9 64.8 2.5 10.3 10.1 16.2 23 16.2 35.6 0.2 10.6-4 20.2-12.5 28.5z" fill="#1296db" p-id="16723"></path></svg>
