<svg t="1770045102840" class="icon" viewBox="0 0 1050 1024" version="1.1" xmlns="http://www.w3.org/2000/svg" p-id="6818" width="200" height="200"><path d="M511.773453 510.619347m-493.256459 0a493.25646 493.25646 0 1 0 986.512919 0 493.25646 493.25646 0 1 0-986.512919 0Z" fill="#B8D9FF" p-id="6819"></path><path d="M672.745627 833.264708s55.790351-11.84455 73.798683-56.67944l-69.554136-97.346724c-0.004274-0.004274-145.712325 54.409698-4.244547 154.026164z" fill="#6E6E96" opacity=".15" p-id="6820"></path><path d="M659.567444 626.00005a104.036266 104.036266 0 0 0-40.876733 5.355908l-167.097487-191.846654a104.472262 104.472262 0 0 0 8.933638-35.858508c3.911138-57.705312-39.718353-107.643917-97.415116-111.555055a104.600496 104.600496 0 0 0-40.081683 5.086617l43.740627 50.079662c14.29382 16.371211 12.605405 41.470884-3.770081 55.773253l-10.421151 9.083243c-16.375485 14.310917-41.462335 12.613954-55.76043-3.757257l-39.876508-45.67696a105.169 105.169 0 0 0-5.390104 26.830833c-3.898314 57.713861 39.718353 107.652466 97.42794 111.559329 11.250399 0.76513 22.193036-0.299213 32.571443-2.906638 0.136783 0.158155 0.247919 0.333408 0.384702 0.487289l171.752381 197.168366a104.523555 104.523555 0 0 0-5.667944 27.587414c-3.906863 57.718136 39.714078 107.665289 97.419391 111.572152a105.703309 105.703309 0 0 0 27.318122-1.726885l-39.876508-45.67696c-14.315192-16.366936-12.609679-41.458061 3.765806-55.751881l10.421152-9.091792c16.362662-14.323741 41.46661-12.618228 55.768978 3.782903l43.723529 50.05829a103.950777 103.950777 0 0 0 10.446799-39.01734c3.889765-57.713861-39.726902-107.652466-97.440763-111.559329z" fill="#6E6E96" opacity=".15" p-id="6821"></path><path d="M152.795118 506.631269c0-254.424859 178.989055-463.822476 408.827176-490.354096-17.482572-1.872217-35.217338-2.902363-53.182925-2.902364-272.437465 0.008549-493.273558 220.848916-493.273558 493.25646s220.831818 493.247911 493.265009 493.247911c17.965587 0 35.700353-1.008774 53.182925-2.889541-229.833847-26.535895-408.818627-235.920689-408.818627-490.35837z" fill="#FFFFFF" opacity=".21" p-id="6822"></path><path d="M511.773453 1020.973677c-281.409572 0-510.35433-228.944758-510.35433-510.35433C1.419123 229.209775 230.363881 0.265017 511.773453 0.265017s510.35433 228.944758 510.35433 510.35433c-0.004274 281.409572-228.944758 510.35433-510.35433 510.35433z m0-986.512919C249.218557 34.460758 35.614864 248.064451 35.614864 510.619347s213.603693 476.158589 476.158589 476.158589 476.158589-213.603693 476.15859-476.158589C987.927768 248.064451 774.328349 34.460758 511.773453 34.460758z" fill="#6E6E96" p-id="6823"></path><path d="M517.347359 10.429701c-23.368514 0-46.305307 1.739708-68.810379 4.889991 239.814729 33.499002 424.428983 239.310341 424.428983 488.370743 0 249.056127-184.614254 454.88029-424.428983 488.362194a496.389644 496.389644 0 0 0 68.810379 4.894266c272.403269 0 493.247911-220.831818 493.247911-493.25646 0-272.416093-220.844641-493.260734-493.247911-493.260734z" fill="#6E6E96" opacity=".15" p-id="6824"></path><path d="M505.233518 26.676952s-104.7672 109.913659-104.7672 480.313372c-0.760855 144.528297 16.725992 394.610297 104.7672 482.651506 0 0-275.250065-62.116563-275.250065-482.642957 0-453.572303 275.250065-480.321921 275.250065-480.321921z" fill="#FFFFFF" opacity=".21" p-id="6825"></path><path d="M522.733188 1020.83262c-120.373281 0-217.899533-202.917524-226.850268-472.003807a17.09787 17.09787 0 0 1 16.520817-17.657826c9.429475-0.2009 17.341515 7.082793 17.653551 16.520817C338.110385 789.724981 424.544394 986.632605 522.733188 986.632605c48.198896 0 96.688456-49.006771 133.038529-134.444829a17.093596 17.093596 0 1 1 31.464355 13.383358c-42.590795 100.120854-101.014218 155.261486-164.502884 155.261486zM733.122482 530.508445a17.09787 17.09787 0 0 1-17.09787-17.097871c0-258.806188-88.515674-477.453753-193.291424-477.453753-49.605196 0-99.107805 51.409021-135.804109 141.048881a17.09787 17.09787 0 0 1-31.643884-12.955911C398.128184 59.398001 457.598851 1.761081 522.733188 1.761081c127.562936 0 227.487164 224.742956 227.487164 511.649493a17.09787 17.09787 0 0 1-17.09787 17.097871z" fill="#6E6E96" p-id="6826"></path><path d="M475.325068 697.832478l-0.44027-0.004275c-126.148087-3.171655-243.627554-23.176163-330.792496-56.324659-94.269108-35.854234-144.096576-82.864828-144.096576-135.949441 0-59.722861 64.578656-112.606574 181.844399-148.901078a17.09787 17.09787 0 0 1 10.109116 32.669756C93.166295 419.898047 34.191466 463.352285 34.191466 505.558377c0 70.691145 168.820097 151.230663 441.556775 158.082635a17.09787 17.09787 0 0 1-0.423173 34.191466zM836.355148 654.583415a17.102145 17.102145 0 0 1-5.103714-33.422062c97.517703-30.528247 155.7445-73.743115 155.7445-115.60725 0-78.192835-190.782311-148.88398-425.283876-157.578247a17.09787 17.09787 0 0 1-16.452426-17.721943 17.149164 17.149164 0 0 1 17.721943-16.452425c227.705162 8.442073 458.2101 77.017357 458.2101 191.74834 0 59.316786-63.82635 111.961129-179.719989 148.24281a17.080772 17.080772 0 0 1-5.116538 0.790777z" fill="#6E6E96" p-id="6827"></path><path d="M635.570583 655.938421c-18.589659 16.234428-47.096084 14.302368-63.313414-4.291565l-172.312336-197.809536c-16.221604-18.589659-14.298094-47.091809 4.29584-63.330512l1.209674-1.055793c18.598208-16.234428 47.096084-14.310917 63.326237 4.278742l172.295239 197.818084c16.247251 18.589659 14.328015 47.087535-4.274468 63.330512l-1.226772 1.060068z" fill="#DCE2F0" p-id="6828"></path><path d="M630.877218 610.761573l-172.299514-197.800987c-16.238702-18.593934-44.732303-20.517444-63.317688-4.274467l-1.218223 1.047244c-3.351183 2.919461 13.353437 20.654227 11.083694 24.240506 0.406074-22.137468 26.21531-24.103723 39.530276-8.852422l139.599837 160.369474c13.302143 15.2513 40.526227 80.312971 30.250407 96.667084a44.364699 44.364699 0 0 0 10.882794-7.001578l1.2054-1.068617c18.593934-16.234428 20.525993-44.736578 4.283017-63.326237z" fill="#F0F0FF" p-id="6829"></path><path d="M606.098129 684.055869a61.971231 61.971231 0 0 1-46.728479-21.167164l-172.320886-197.822359c-22.453778-25.732295-19.790785-64.959084 5.94151-87.442783l1.2054-1.051519a61.911388 61.911388 0 0 1 40.735676-15.247026 61.97978 61.97978 0 0 1 46.71993 21.15434l172.312337 197.835183c10.844324 12.404505 16.213055 28.369641 15.093145 44.924654-1.115636 16.555013-8.578856 31.652432-21.017557 42.513854l-1.295164 1.119911a61.766056 61.766056 0 0 1-40.645912 15.182909z m-171.162505-288.530836a27.719922 27.719922 0 0 0-18.243427 6.804953l-1.201126 1.047244c-11.545337 10.083469-12.737913 27.677178-2.667268 39.21824l172.320886 197.822359a27.77549 27.77549 0 0 0 20.949166 9.442299 27.685726 27.685726 0 0 0 18.226329-6.800678l1.295164-1.11991c5.484142-4.791678 8.822501-11.562435 9.326888-19.000009s-1.893589-14.593032-6.74511-20.141291l-172.312336-197.843731a27.796863 27.796863 0 0 0-20.949166-9.429476z" fill="#6E6E96" p-id="6830"></path><path d="M274.955126 317.870781a105.254489 105.254489 0 0 0-5.394378 26.822284c-3.898314 57.713861 39.718353 107.65674 97.42794 111.563603 57.705312 3.902589 107.648191-39.714078 111.546505-97.432213 3.911138-57.705312-39.714078-107.643917-97.415116-111.555055a104.416694 104.416694 0 0 0-40.077407 5.090891l43.736352 50.075387c14.29382 16.371211 12.605405 41.475159-3.765806 55.773253l-10.425427 9.078969c-16.371211 14.310917-41.462335 12.613954-55.760429-3.757257l-39.872234-45.659862z" fill="#DCE2F0" p-id="6831"></path><path d="M401.77003 327.424216c6.873344-13.904843 8.202703-34.768519-11.276045-57.076966l-21.611708-24.732069a104.104658 104.104658 0 0 0-24.16784 4.97548l43.732078 50.066839c3.487966 4.009451 11.72059 22.009234 13.323515 26.766716z m-128.537514 15.482121c-3.906863 57.713861 39.705529 107.661015 97.415116 111.555055 57.726685 3.902589 107.661015-39.718353 111.567878-97.423665a104.356851 104.356851 0 0 0-19.517219-68.280345c3.004951 11.64365 5.133636 24.095174 6.753659 36.978419 7.270869 58.466167-39.551648 109.952129-97.26551 106.045266-52.54603-3.53071-92.88418-52.917909-96.81669-103.920855a102.198245 102.198245 0 0 0-2.137234 15.046125z" fill="#C4CAD6" p-id="6832"></path><path d="M345.45392 377.020863l-16.969636-2.581778-53.366728-42.419817s23.586512 32.827911 38.57707 49.998448c21.209908 24.28325 46.117231 3.73161 46.117231 3.73161l33.417787-30.562443-47.775724 21.83398zM371.94707 262.469407l12.712267 14.558836c77.205433 13.537239 85.339745 68.130739 85.339745 68.130739-16.82003-86.181815-98.043463-82.681026-98.052012-82.689575z" fill="#F0F0FF" p-id="6833"></path><path d="M385.185096 268.727227c27.745569 27.595963 16.332741 62.851771 16.332741 62.851771C421.368464 296.049624 397.696463 271.428691 397.696463 271.428691l-12.511367-2.701464z" fill="#F0F0FF" p-id="6834"></path><path d="M374.203989 473.58536c-2.786953 0-5.582455-0.094038-8.382231-0.286389-32.451758-2.192802-62.125112-16.901245-83.53592-41.411042-21.410808-24.509797-31.990115-55.892938-29.793039-88.361794a122.348085 122.348085 0 0 1 6.279193-31.195064 17.089321 17.089321 0 0 1 29.062105-5.723512l39.876508 45.672686a22.244329 22.244329 0 0 0 15.37526 7.570082 22.081899 22.081899 0 0 0 16.2558-5.437123l10.442524-9.100341c9.292692-8.117214 10.250173-22.316995 2.115862-31.635335L328.167973 263.606415a17.09787 17.09787 0 0 1 7.488867-27.472003 121.219626 121.219626 0 0 1 46.621618-5.924412c67.027926 4.543759 117.859894 62.757733 113.32041 129.772835a121.672719 121.672719 0 0 1-10.357035 41.66751 17.09787 17.09787 0 0 1-31.207888-13.981783 87.541096 87.541096 0 0 0 7.450397-29.989665c3.265693-48.207445-33.302377-90.08013-81.514096-93.350097a89.302176 89.302176 0 0 0-5.945785-0.2009l23.637806 27.065929c20.534542 23.518121 18.115194 59.359531-5.394378 79.898348l-10.442524 9.096067a56.166504 56.166504 0 0 1-41.043438 13.789432 56.209249 56.209249 0 0 1-38.824989-19.192359l-15.392358-17.632179c1.145557 19.252202 8.578856 37.487081 21.4792 52.251091a87.070904 87.070904 0 0 0 60.103288 29.788765c9.574807 0.649719 19.094047-0.247919 28.296976-2.675817a17.09787 17.09787 0 1 1 8.737011 33.058732 121.441898 121.441898 0 0 1-30.977066 4.009451z" fill="#6E6E96" p-id="6835"></path><path d="M650.886 742.761406c-14.310917-16.366936-12.609679-41.458061 3.757257-55.756155l10.421152-9.087518c16.371211-14.319466 41.46661-12.622503 55.777528 3.774355l43.723528 50.062564a104.006345 104.006345 0 0 0 10.446799-39.013065c3.906863-57.726685-39.714078-107.665289-97.423665-111.576427-57.713861-3.898314-107.65674 39.731176-111.563603 97.423665-3.902589 57.718136 39.714078 107.669564 97.41939 111.576427a105.703309 105.703309 0 0 0 27.318122-1.726885l-39.876508-45.676961z" fill="#DCE2F0" p-id="6836"></path><path d="M727.775123 670.198045l43.723529 50.083936a104.780024 104.780024 0 0 0 8.168507-23.291574l-21.598884-24.727794c-19.500121-22.32127-40.342425-23.808784-55.050868-18.858951 4.513838 2.214174 21.248378 12.793481 24.757716 16.794383z m-42.210367 108.396223c-50.006996-10.775933-93.499704-57.384727-89.943347-109.935032 3.902589-57.713861 61.227473-97.167197 118.189028-82.099698 12.549837 3.338359 24.603835 7.129812 35.726 11.673571a104.232892 104.232892 0 0 0-65.036024-28.54062c-57.705312-3.902589-107.652466 39.701255-111.55078 97.423665-3.906863 57.72241 39.705529 107.65674 97.41939 111.567878 5.150733 0.346232 10.215977 0.294938 15.195733-0.089764z" fill="#C4CAD6" p-id="6837"></path><path d="M669.672285 666.197143l-34.772793 29.010812s-23.710472 21.893823-2.504838 46.198445c14.994832 17.161987 44.347601 44.971673 44.347601 44.971673l-34.836911-58.611499-0.269292-17.153438 28.036233-44.415993zM689.967457 591.569214s52.9863 15.405181 56.012623 93.743348l12.707992 14.53319c0.008549 0 14.40923-80.009484-68.720615-108.276538z" fill="#F0F0FF" p-id="6838"></path><path d="M753.28942 673.053389s-21.188536-26.783814-59.085965-11.878745c0 0 36.482581-6.561308 60.094739 24.650854l-1.008774-12.772109z" fill="#F0F0FF" p-id="6839"></path><path d="M670.407494 807.498218c-2.705738 0-5.402927-0.089764-8.100116-0.265017-67.040749-4.539485-117.872718-62.770556-113.346057-129.798483a122.147185 122.147185 0 0 1 6.78358-32.725323 17.093596 17.093596 0 1 1 32.208113 11.476945 87.763368 87.763368 0 0 0-4.872893 23.560865c-3.004951 44.398895 27.766941 83.429058 70.293619 91.879681l-15.392357-17.619356c-20.534542-23.505297-18.110919-59.342433 5.390103-79.88125l10.43825-9.100341c11.348711-9.91249 25.911822-14.806756 41.060536-13.797981a56.217797 56.217797 0 0 1 38.837812 19.22228l23.629257 27.053106c0.265017-1.957706 0.457368-3.923961 0.594151-5.907315 3.265693-48.220269-33.306651-90.105776-81.518371-93.371469-12.88752-0.867717-28.134546 0.76513-37.910253 4.039372a17.085047 17.085047 0 0 1-21.64163-10.775933 17.089321 17.089321 0 0 1 10.775933-21.641629c14.028803-4.710463 33.588766-6.903265 51.071339-5.744885 67.049298 4.543759 117.881267 62.770556 113.350331 129.789934a120.787905 120.787905 0 0 1-12.156586 45.394845 17.09787 17.09787 0 0 1-28.220035 3.705963l-43.723529-50.062564a22.252878 22.252878 0 0 0-15.392357-7.591454 22.329819 22.329819 0 0 0-16.26435 5.441397l-10.433975 9.096067a22.449504 22.449504 0 0 0-2.12441 31.626786l39.893606 45.681235a17.09787 17.09787 0 0 1-9.613278 28.031958 123.438074 123.438074 0 0 1-23.616433 2.282566z" fill="#6E6E96" p-id="6840"></path></svg>
