<svg t="1770044896368" class="icon" viewBox="0 0 1024 1024" version="1.1" xmlns="http://www.w3.org/2000/svg" p-id="10626" width="200" height="200"><path d="M1024 0H0v1024h1024z" fill="#FFFFFF" p-id="10627"></path><path d="M961.320421 404.210526l-256-256a32.013474 32.013474 0 0 0-45.271579 0L512.053895 296.259368 363.951158 148.210526a32.013474 32.013474 0 0 0-45.271579 0L62.679579 404.210526a32.013474 32.013474 0 0 0 0 45.271579l426.684632 426.630737a32.336842 32.336842 0 0 0 17.138526 8.730947 34.816 34.816 0 0 0 5.389474 0.431158 32.336842 32.336842 0 0 0 22.204631-8.946526l170.522947-170.522947 85.207579-85.207579 170.684632-170.630737a32.013474 32.013474 0 0 0 0-45.271579zM512 808.421053L130.586947 427.061895l210.728421-210.728421L466.728421 341.692632 340.075789 468.453053a31.690105 31.690105 0 0 0-9.323789 20.803368 30.935579 30.935579 0 0 0 0 3.125895 31.744 31.744 0 0 0 8.623158 20.426105l1.347368 1.347368a31.636211 31.636211 0 0 0 6.036211 4.365474L452.715789 582.170947a31.959579 31.959579 0 0 0 39.127579-4.796631l105.364211-105.364211 125.413053 125.359158-40.04379 40.097684-41.391158-41.337263a31.959579 31.959579 0 0 0-45.217684 45.217684l41.337263 41.391158-40.097684 40.04379-41.391158-41.337263a31.959579 31.959579 0 0 0-45.217684 45.217684l41.337263 41.391158z m256-256l-148.048842-147.994948a32.013474 32.013474 0 0 0-45.271579 0L464.357053 514.748632l-50.068211-30.073264 268.39579-268.341894 210.728421 210.728421z" fill="#7E93A6" p-id="10628"></path></svg>
