<?xml version="1.0" standalone="no"?><!DOCTYPE svg PUBLIC "-//W3C//DTD SVG 1.1//EN" "http://www.w3.org/Graphics/SVG/1.1/DTD/svg11.dtd"><svg t="1770044555214" class="icon" viewBox="0 0 1674 1024" version="1.1" xmlns="http://www.w3.org/2000/svg" p-id="6540" xmlns:xlink="http://www.w3.org/1999/xlink" width="326.953125" height="200"><path d="M673.792 563.2h-65.536c-11.776 0-17.408 5.632-17.408 17.408v52.736c-1.536-2.048-2.56-2.56-3.072-3.584-43.008-54.784-86.016-110.08-129.024-164.864-2.048-2.56-1.536-4.096 0.512-6.144 40.448-51.712 80.896-102.912 120.832-154.624 3.584-4.096 6.656-8.704 10.752-13.824 0 16.384 0.512 31.744 0 46.592-0.512 16.384 6.144 22.016 21.504 22.016 107.008-0.512 213.504 0 320.512-0.512 4.608 0 6.656 0.512 6.144 6.144-0.512 15.36 0 31.232 0 46.592 0 9.216 6.144 15.36 15.36 15.36h17.408c11.264 0 16.896-5.632 16.896-17.408 0-27.648-0.512-55.296 0-82.944 0-11.264-7.68-17.92-17.408-17.92-108.544 0.512-217.088 0-325.632 0.512-4.096 0-5.12-1.024-5.12-5.12V216.064c0-10.24-6.144-16.384-16.384-16.384h-15.872c-7.168-0.512-12.288 2.56-16.384 8.192-63.488 81.408-127.488 162.816-190.976 244.736-5.12 6.656-5.12 12.8 0 19.456 25.6 32.768 51.712 66.048 77.312 98.816 37.888 48.64 75.776 96.768 113.664 145.408 3.584 4.608 7.68 6.656 13.824 6.656h17.408c12.8 0 18.432-5.632 18.432-17.92v-86.016c0-3.584 0.512-5.12 4.608-5.12 10.24 0.512 19.968 0 30.208 0 8.704 0 14.848-6.144 15.36-15.36v-17.408c-1.024-12.288-6.656-17.92-17.92-17.92z" fill="#4D71F4" p-id="6541"></path><path d="M1279.488 586.752c-17.408-22.528-34.816-44.544-52.224-67.072-46.08-58.88-92.16-118.272-138.24-177.152-3.584-4.608-8.192-7.168-13.824-7.168h-21.504c-11.264 0-17.408 5.632-17.408 17.408v81.92c0 5.12-1.536 5.632-6.144 5.632-102.4 0-205.312 0-307.712-0.512-10.752 0-17.408 7.68-17.408 16.896 0.512 92.672 0 184.832 0 277.504 0 10.752 5.632 16.384 16.384 16.384h309.76c4.096 0 5.12 1.024 5.12 5.12V839.68c0 9.728 6.144 15.872 15.872 15.872 6.144 0 12.8-0.512 18.944 0 9.216 1.024 14.848-3.072 19.968-10.24 62.464-80.384 125.44-160.768 188.416-241.152 4.608-4.096 4.608-10.752 0-17.408z m-58.88 13.312c-44.032 55.808-87.552 112.128-131.584 167.936-1.024 1.024-1.536 2.048-3.584 4.096v-12.288-39.936c0-11.776-5.632-17.408-17.408-17.408h-307.2c-5.12 0-6.144-1.024-6.144-6.144V496.64c0-4.608 1.024-5.632 5.632-5.632h306.688c13.312 0 18.432-5.12 18.432-18.432v-50.176l1.024-0.512c8.192 10.24 15.872 20.48 24.064 30.72 36.864 47.104 73.216 93.696 110.08 140.288 2.048 2.56 2.048 4.096 0 7.168z" fill="#33363A" p-id="6542"></path></svg>
